<?xml version="1.0" encoding="utf-8"?>
<!-- Generator: Adobe Illustrator 25.2.0, SVG Export Plug-In . SVG Version: 6.00 Build 0)  -->
<svg version="1.1" id="Calque_1" xmlns="http://www.w3.org/2000/svg" xmlns:xlink="http://www.w3.org/1999/xlink" x="0px" y="0px"
	 viewBox="0 0 300 66" style="enable-background:new 0 0 300 66;" xml:space="preserve">
<style type="text/css">
	.st0{fill:#1018DE;}
</style>
<path class="st0" d="M66.2,54h9.3l-3.5-13.6c1.9-0.1,3.9-0.1,5.8,0.1l1.3-7.7c-10.6-0.9-21.2,1.2-30.7,6.1l10.2-17.6l2.3,10.3
	c2.7-0.7,5.5-1.1,8.4-1.4L64.6,12h-9.7L30,54h9.9c6.6-6.2,14.7-10.6,23.7-12.5C64.3,45.6,65.2,50,66.2,54L66.2,54z"/>
<path class="st0" d="M254,16.8c-1.7-2.2-3.5-3.7-5.6-4.5c-2-0.9-4.6-1.3-7.6-1.3c-4.4,0-8.3,1.1-11.8,3.2c-3.4,2.2-5.5,5.2-6.2,9.2
	c-0.3,2.3-0.2,4.3,0.3,6c0.6,1.7,1.6,3,3,4c1.4,1,2.9,1.7,4.6,2.2c1.6,0.5,3.6,0.9,5.8,1.2c2.5,0.3,4.3,0.8,5.5,1.5
	c1.1,0.7,1.7,1.7,1.7,3.1c0,1.8-0.8,3.2-2.5,4.3c-1.7,1-3.8,1.6-6.4,1.6c-2.2,0-4.3-0.5-6.3-1.4c-2.1-0.9-3.7-2.4-4.8-4.2l-5.7,7
	c1.4,2.4,3.4,4.2,6.2,5.4c2.8,1.2,5.8,1.8,9.1,1.8c3.6,0,6.8-0.5,9.5-1.5c2.8-1,5.1-2.6,7-5c1.9-2.4,2.8-5.4,2.8-9
	c0-2.5-0.6-4.7-1.9-6.4c-1.3-1.7-2.9-3-4.8-3.8c-1.9-0.8-4.1-1.3-6.6-1.5c-2.7-0.2-4.6-0.7-5.9-1.2c-1.3-0.6-1.9-1.6-1.9-3.1
	c0-1.6,0.8-2.9,2.3-3.9c1.6-1,3.4-1.5,5.6-1.5c1.7,0,3.3,0.3,4.8,0.8c1.6,0.6,2.8,1.4,3.7,2.5L254,16.8L254,16.8z"/>
<path class="st0" d="M213.3,45.4H192l1.4-8.5h19.3l1.3-8.2h-19.3l1.3-8.1h20.5L218,12h-29.1L182,54h29.9L213.3,45.4z"/>
<path class="st0" d="M131.9,54l7.1-42h-8.9L123,54H131.9z"/>
<path class="st0" d="M115,53.3l-8.5-13.9c4-1.4,6.9-3.4,8.7-5.9c1.9-2.5,2.8-5.6,2.8-9.4c0-3.4-1.1-6.3-3.2-8.6
	c-2.2-2.3-5.2-3.4-9.2-3.4H86.9L80,54h8.8l2.3-13.8h6.5l7.7,13.8h9.5L115,53.3L115,53.3z M104.2,20c1.6,0,2.9,0.5,3.7,1.6
	c0.8,1.1,1.2,2.4,1.2,3.8c0,1.7-0.6,3.2-1.9,4.6c-1.2,1.4-2.9,2.1-5,2.1h-10l2-12.2H104.2z"/>
<path class="st0" d="M163.3,42.1c5.5,0,9.8-1.7,12.9-5.1c3.2-3.4,4.7-7.5,4.7-12.4c0-3.7-1.1-6.7-3.3-9.1c-2.2-2.4-5.3-3.5-9.5-3.5
	h-18.4L143,54h8.7l1.9-11.9H163.3L163.3,42.1z M157.1,20.9h9.7c1.7,0,3,0.5,4,1.5c0.9,1,1.4,2.3,1.4,3.8c0,2-0.7,3.7-2,5.1
	c-1.3,1.5-3.1,2.2-5.4,2.2H155L157.1,20.9L157.1,20.9z"/>
<path class="st0" d="M20.3,42.1c5.5,0,9.8-1.7,12.9-5.1c3.2-3.4,4.7-7.5,4.7-12.4c0-3.7-1.1-6.7-3.3-9.1c-2.2-2.4-5.3-3.5-9.5-3.5
	H6.9L0,54h8.7l1.9-11.9H20.3z M14.1,20.9h9.7c1.7,0,3,0.5,4,1.5c0.9,1,1.4,2.3,1.4,3.8c0,2-0.7,3.7-2,5.1c-1.3,1.5-3.1,2.2-5.4,2.2
	H12L14.1,20.9L14.1,20.9z"/>
<path class="st0" d="M287.2,54h9.3l-3.5-13.6c1.9-0.1,3.9-0.1,5.8,0.1l1.3-7.7c-10.6-0.9-21.2,1.2-30.7,6.1l10.2-17.6l2.3,10.3
	c2.7-0.7,5.5-1.1,8.4-1.4L285.6,12h-9.7L251,54h9.9c6.6-6.2,14.7-10.6,23.7-12.5C285.3,45.6,286.2,50,287.2,54L287.2,54z"/>
</svg>
