<?xml version="1.0" encoding="utf-8"?>
<!-- Generator: Adobe Illustrator 25.2.0, SVG Export Plug-In . SVG Version: 6.00 Build 0)  -->
<svg version="1.1" id="Calque_1" xmlns="http://www.w3.org/2000/svg" xmlns:xlink="http://www.w3.org/1999/xlink" x="0px" y="0px"
	 viewBox="0 0 200 200" style="enable-background:new 0 0 200 200;" xml:space="preserve">
<style type="text/css">
	.st0{display:none;fill:#C01422;}
	.st1{display:none;fill:none;stroke:#FFFFFF;stroke-width:5;stroke-linecap:square;stroke-miterlimit:10;}
	.st2{fill:#C01422;}
	.st3{fill:#FFFFFF;}
</style>
<path class="st0" d="M-740.1,105.4l125.9-125.9c2-2,5.1-2,7.1,0L-578.6,8c2,2,2,5.1,0,7.1l-90.9,90.9c-2,2-2,5.1,0,7.1l55.5,55.5
	c2,2,5.1,2,7.1,0l55.4-55.4c2-2,2-5.1,0-7.1l-8.3-8.3c-2-2-5.1-2-7.1,0l-40.6,40.6c-2,2-5.1,2-7.1,0l-25.7-25.7c-2-2-2-5.1,0-7.1
	l76.1-76.1c2-2,5.1-2,7.1,0l75.5,75.5c2,2,2,5.1,0,7.1L-607,237.7c-1.9,1.9-5.1,2-7.1,0l-126-125.2
	C-742,110.5-742,107.4-740.1,105.4z"/>
<polyline class="st1" points="-612.2,11.8 -708.4,107.9 -612.7,203.6 -516.7,107.6 -561.2,63.1 -609.3,111.2 "/>
<g>
	<path class="st2" d="M2.1,97.6L97.5,2.3c1.5-1.5,3.9-1.5,5.4,0l21.6,21.6c1.5,1.5,1.5,3.9,0,5.4L55.6,98c-1.5,1.5-1.5,3.9,0,5.4
		l42,42c1.5,1.5,3.9,1.5,5.4,0l41.9-41.9c1.5-1.5,1.5-3.9,0-5.4l-6.2-6.2c-1.5-1.5-3.9-1.5-5.4,0l-30.8,30.8c-1.5,1.5-3.9,1.5-5.4,0
		l-19.4-19.4c-1.5-1.5-1.5-3.9,0-5.4l57.6-57.6c1.5-1.5,3.9-1.5,5.4,0l57.2,57.2c1.5,1.5,1.5,3.9,0,5.4l-95,95
		c-1.5,1.5-3.9,1.5-5.3,0L2.1,103C0.6,101.5,0.6,99.1,2.1,97.6z"/>
	<polygon class="st3" points="98.5,174.6 23.4,99.5 98.9,24.1 101.6,26.7 28.8,99.5 98.5,169.2 168.5,99.2 137.5,68.2 101.1,104.6 
		98.5,102 137.5,62.9 173.9,99.2 	"/>
</g>
</svg>
