<svg width="76" height="14" viewBox="0 0 76 14" fill="none" xmlns="http://www.w3.org/2000/svg">
<path d="M18 9.756V3H22.824V4.056H19.212V5.832H21.984V6.84H19.212V8.772H22.944V9.756H18Z" fill="white"/>
<path d="M25.2717 9.876C24.8237 9.876 24.4597 9.772 24.1797 9.564C23.8997 9.348 23.6957 9.052 23.5677 8.676C23.4477 8.292 23.3877 7.852 23.3877 7.356C23.3877 6.852 23.4517 6.408 23.5797 6.024C23.7077 5.64 23.9077 5.344 24.1797 5.136C24.4597 4.92 24.8237 4.812 25.2717 4.812C25.5597 4.812 25.7997 4.852 25.9917 4.932C26.1917 5.012 26.3517 5.108 26.4717 5.22C26.5997 5.332 26.6957 5.444 26.7597 5.556C26.8237 5.66 26.8677 5.744 26.8917 5.808H26.9157V4.824H28.1757V9.756H27.1197L26.9157 8.952H26.8917C26.8757 9.008 26.8317 9.088 26.7597 9.192C26.6877 9.288 26.5877 9.392 26.4597 9.504C26.3397 9.608 26.1797 9.696 25.9797 9.768C25.7877 9.84 25.5517 9.876 25.2717 9.876ZM25.7757 8.844C26.0717 8.844 26.3037 8.78 26.4717 8.652C26.6397 8.524 26.7557 8.348 26.8197 8.124C26.8837 7.892 26.9157 7.64 26.9157 7.368C26.9157 7.072 26.8797 6.816 26.8077 6.6C26.7437 6.376 26.6277 6.204 26.4597 6.084C26.2997 5.956 26.0717 5.892 25.7757 5.892C25.4637 5.892 25.2197 5.96 25.0437 6.096C24.8757 6.232 24.7557 6.412 24.6837 6.636C24.6197 6.852 24.5877 7.096 24.5877 7.368C24.5877 7.64 24.6197 7.888 24.6837 8.112C24.7557 8.336 24.8757 8.516 25.0437 8.652C25.2197 8.78 25.4637 8.844 25.7757 8.844Z" fill="white"/>
<path d="M30.8892 9.876C30.7212 9.876 30.5372 9.852 30.3372 9.804C30.1372 9.764 29.9372 9.7 29.7372 9.612C29.5372 9.516 29.3532 9.396 29.1852 9.252C29.0252 9.108 28.8972 8.94 28.8012 8.748C28.7052 8.556 28.6572 8.332 28.6572 8.076H29.7852C29.7852 8.084 29.7892 8.136 29.7972 8.232C29.8132 8.328 29.8532 8.436 29.9172 8.556C29.9812 8.668 30.0852 8.768 30.2292 8.856C30.3732 8.944 30.5812 8.988 30.8532 8.988C31.0692 8.988 31.2452 8.96 31.3812 8.904C31.5172 8.848 31.6172 8.78 31.6812 8.7C31.7532 8.612 31.7892 8.516 31.7892 8.412C31.7892 8.236 31.7132 8.1 31.5612 8.004C31.4172 7.9 31.2292 7.816 30.9972 7.752C30.7652 7.688 30.5172 7.624 30.2532 7.56C29.9972 7.488 29.7532 7.396 29.5212 7.284C29.2972 7.172 29.1132 7.02 28.9692 6.828C28.8252 6.628 28.7532 6.372 28.7532 6.06C28.7532 5.596 28.9372 5.248 29.3052 5.016C29.6732 4.784 30.1412 4.668 30.7092 4.668C31.0132 4.668 31.2972 4.704 31.5612 4.776C31.8332 4.84 32.0732 4.948 32.2812 5.1C32.4892 5.244 32.6532 5.432 32.7732 5.664C32.9012 5.888 32.9652 6.164 32.9652 6.492H31.8372C31.8452 6.308 31.8132 6.16 31.7412 6.048C31.6772 5.928 31.5892 5.836 31.4772 5.772C31.3652 5.708 31.2452 5.664 31.1172 5.64C30.9892 5.616 30.8652 5.604 30.7452 5.604C30.4572 5.604 30.2372 5.656 30.0852 5.76C29.9412 5.856 29.8692 5.984 29.8692 6.144C29.8692 6.328 29.9412 6.472 30.0852 6.576C30.2372 6.672 30.4292 6.752 30.6612 6.816C30.9012 6.88 31.1532 6.948 31.4172 7.02C31.6812 7.084 31.9292 7.172 32.1612 7.284C32.3932 7.396 32.5812 7.548 32.7252 7.74C32.8772 7.924 32.9532 8.172 32.9532 8.484C32.9532 8.796 32.8652 9.056 32.6892 9.264C32.5212 9.464 32.2812 9.616 31.9692 9.72C31.6652 9.824 31.3052 9.876 30.8892 9.876Z" fill="white"/>
<path d="M33.0497 12.048V11.1H33.8057C33.9257 11.1 34.0297 11.088 34.1177 11.064C34.2137 11.04 34.3057 10.976 34.3937 10.872C34.4817 10.776 34.5777 10.616 34.6817 10.392L35.0057 9.672L33.0857 4.824H34.3457L35.6057 8.412L36.9617 4.824H38.2217L35.7977 10.512C35.6537 10.848 35.5177 11.116 35.3897 11.316C35.2697 11.524 35.1457 11.68 35.0177 11.784C34.8897 11.888 34.7417 11.956 34.5737 11.988C34.4057 12.028 34.2097 12.048 33.9857 12.048H33.0497Z" fill="white"/>
<path d="M41.4666 3.216V9.756H40.2426V3.216H41.4666ZM38.2506 4.056V3H43.4706V4.056H38.2506Z" fill="white"/>
<path d="M43.3282 9.756V4.824H44.4682L44.5642 6.264L44.5522 7.32V9.756H43.3282ZM44.5522 7.632L44.5162 6.54C44.5162 6.372 44.5482 6.192 44.6122 6C44.6762 5.8 44.7802 5.612 44.9242 5.436C45.0762 5.26 45.2722 5.116 45.5122 5.004C45.7522 4.884 46.0482 4.824 46.4002 4.824H46.5802V6.192H46.4002C46.0562 6.192 45.7642 6.22 45.5242 6.276C45.2842 6.324 45.0922 6.404 44.9482 6.516C44.8122 6.628 44.7122 6.776 44.6482 6.96C44.5842 7.144 44.5522 7.368 44.5522 7.632Z" fill="white"/>
<path d="M48.7748 9.876C48.3268 9.876 47.9628 9.772 47.6828 9.564C47.4028 9.348 47.1988 9.052 47.0708 8.676C46.9508 8.292 46.8908 7.852 46.8908 7.356C46.8908 6.852 46.9548 6.408 47.0828 6.024C47.2108 5.64 47.4108 5.344 47.6828 5.136C47.9628 4.92 48.3268 4.812 48.7748 4.812C49.0628 4.812 49.3028 4.852 49.4948 4.932C49.6948 5.012 49.8548 5.108 49.9748 5.22C50.1028 5.332 50.1988 5.444 50.2628 5.556C50.3268 5.66 50.3708 5.744 50.3948 5.808H50.4188V4.824H51.6788V9.756H50.6228L50.4188 8.952H50.3948C50.3788 9.008 50.3348 9.088 50.2628 9.192C50.1908 9.288 50.0908 9.392 49.9628 9.504C49.8428 9.608 49.6828 9.696 49.4828 9.768C49.2908 9.84 49.0548 9.876 48.7748 9.876ZM49.2788 8.844C49.5748 8.844 49.8068 8.78 49.9748 8.652C50.1428 8.524 50.2588 8.348 50.3228 8.124C50.3868 7.892 50.4188 7.64 50.4188 7.368C50.4188 7.072 50.3828 6.816 50.3108 6.6C50.2468 6.376 50.1308 6.204 49.9628 6.084C49.8028 5.956 49.5748 5.892 49.2788 5.892C48.9668 5.892 48.7228 5.96 48.5468 6.096C48.3788 6.232 48.2588 6.412 48.1868 6.636C48.1228 6.852 48.0908 7.096 48.0908 7.368C48.0908 7.64 48.1228 7.888 48.1868 8.112C48.2588 8.336 48.3788 8.516 48.5468 8.652C48.7228 8.78 48.9668 8.844 49.2788 8.844Z" fill="white"/>
<path d="M52.2803 9.756V4.824H53.3243L53.5283 5.892H53.5523C53.5603 5.868 53.5883 5.804 53.6363 5.7C53.6923 5.588 53.7803 5.464 53.9003 5.328C54.0283 5.192 54.1963 5.076 54.4043 4.98C54.6203 4.876 54.8883 4.824 55.2083 4.824C55.5603 4.824 55.8443 4.884 56.0603 5.004C56.2843 5.116 56.4603 5.268 56.5883 5.46C56.7163 5.644 56.8043 5.852 56.8523 6.084C56.9083 6.308 56.9403 6.532 56.9483 6.756C56.9643 6.98 56.9723 7.184 56.9723 7.368V9.756H55.7723V7.356C55.7723 7.092 55.7443 6.852 55.6883 6.636C55.6403 6.42 55.5403 6.244 55.3883 6.108C55.2443 5.972 55.0163 5.904 54.7043 5.904C54.3843 5.904 54.1403 5.98 53.9723 6.132C53.8043 6.276 53.6883 6.46 53.6243 6.684C53.5603 6.908 53.5283 7.148 53.5283 7.404V9.756H52.2803Z" fill="white"/>
<path d="M59.7422 9.876C59.5742 9.876 59.3902 9.852 59.1902 9.804C58.9902 9.764 58.7902 9.7 58.5902 9.612C58.3902 9.516 58.2062 9.396 58.0382 9.252C57.8782 9.108 57.7502 8.94 57.6542 8.748C57.5582 8.556 57.5102 8.332 57.5102 8.076H58.6382C58.6382 8.084 58.6422 8.136 58.6502 8.232C58.6662 8.328 58.7062 8.436 58.7702 8.556C58.8342 8.668 58.9382 8.768 59.0822 8.856C59.2262 8.944 59.4342 8.988 59.7062 8.988C59.9222 8.988 60.0982 8.96 60.2342 8.904C60.3702 8.848 60.4702 8.78 60.5342 8.7C60.6062 8.612 60.6422 8.516 60.6422 8.412C60.6422 8.236 60.5662 8.1 60.4142 8.004C60.2702 7.9 60.0822 7.816 59.8502 7.752C59.6182 7.688 59.3702 7.624 59.1062 7.56C58.8502 7.488 58.6062 7.396 58.3742 7.284C58.1502 7.172 57.9662 7.02 57.8222 6.828C57.6782 6.628 57.6062 6.372 57.6062 6.06C57.6062 5.596 57.7902 5.248 58.1582 5.016C58.5262 4.784 58.9942 4.668 59.5622 4.668C59.8662 4.668 60.1502 4.704 60.4142 4.776C60.6862 4.84 60.9262 4.948 61.1342 5.1C61.3422 5.244 61.5062 5.432 61.6262 5.664C61.7542 5.888 61.8182 6.164 61.8182 6.492H60.6902C60.6982 6.308 60.6662 6.16 60.5942 6.048C60.5302 5.928 60.4422 5.836 60.3302 5.772C60.2182 5.708 60.0982 5.664 59.9702 5.64C59.8422 5.616 59.7182 5.604 59.5982 5.604C59.3102 5.604 59.0902 5.656 58.9382 5.76C58.7942 5.856 58.7222 5.984 58.7222 6.144C58.7222 6.328 58.7942 6.472 58.9382 6.576C59.0902 6.672 59.2822 6.752 59.5142 6.816C59.7542 6.88 60.0062 6.948 60.2702 7.02C60.5342 7.084 60.7822 7.172 61.0142 7.284C61.2462 7.396 61.4342 7.548 61.5782 7.74C61.7302 7.924 61.8062 8.172 61.8062 8.484C61.8062 8.796 61.7182 9.056 61.5422 9.264C61.3742 9.464 61.1342 9.616 60.8222 9.72C60.5182 9.824 60.1582 9.876 59.7422 9.876Z" fill="white"/>
<path d="M64.0627 9.876C63.6147 9.876 63.2507 9.772 62.9707 9.564C62.6907 9.348 62.4867 9.052 62.3587 8.676C62.2387 8.292 62.1787 7.852 62.1787 7.356C62.1787 6.852 62.2427 6.408 62.3707 6.024C62.4987 5.64 62.6987 5.344 62.9707 5.136C63.2507 4.92 63.6147 4.812 64.0627 4.812C64.3507 4.812 64.5907 4.852 64.7827 4.932C64.9827 5.012 65.1427 5.108 65.2627 5.22C65.3907 5.332 65.4867 5.444 65.5507 5.556C65.6147 5.66 65.6587 5.744 65.6827 5.808H65.7067V4.824H66.9667V9.756H65.9107L65.7067 8.952H65.6827C65.6667 9.008 65.6227 9.088 65.5507 9.192C65.4787 9.288 65.3787 9.392 65.2507 9.504C65.1307 9.608 64.9707 9.696 64.7707 9.768C64.5787 9.84 64.3427 9.876 64.0627 9.876ZM64.5667 8.844C64.8627 8.844 65.0947 8.78 65.2627 8.652C65.4307 8.524 65.5467 8.348 65.6107 8.124C65.6747 7.892 65.7067 7.64 65.7067 7.368C65.7067 7.072 65.6707 6.816 65.5987 6.6C65.5347 6.376 65.4187 6.204 65.2507 6.084C65.0907 5.956 64.8627 5.892 64.5667 5.892C64.2547 5.892 64.0107 5.96 63.8347 6.096C63.6667 6.232 63.5467 6.412 63.4747 6.636C63.4107 6.852 63.3787 7.096 63.3787 7.368C63.3787 7.64 63.4107 7.888 63.4747 8.112C63.5467 8.336 63.6667 8.516 63.8347 8.652C64.0107 8.78 64.2547 8.844 64.5667 8.844Z" fill="white"/>
<path d="M69.9442 9.876C69.4802 9.876 69.0602 9.784 68.6842 9.6C68.3082 9.408 68.0082 9.128 67.7842 8.76C67.5602 8.384 67.4482 7.928 67.4482 7.392C67.4642 6.856 67.5802 6.396 67.7962 6.012C68.0202 5.628 68.3202 5.332 68.6962 5.124C69.0722 4.916 69.4962 4.812 69.9682 4.812C70.4642 4.812 70.8842 4.908 71.2282 5.1C71.5722 5.284 71.8402 5.524 72.0322 5.82C72.2242 6.116 72.3322 6.428 72.3562 6.756H71.2282C71.1722 6.468 71.0402 6.248 70.8322 6.096C70.6242 5.944 70.3482 5.868 70.0042 5.868C69.7162 5.868 69.4722 5.928 69.2722 6.048C69.0722 6.168 68.9162 6.336 68.8042 6.552C68.7002 6.76 68.6482 7.008 68.6482 7.296C68.6482 7.76 68.7602 8.132 68.9842 8.412C69.2162 8.684 69.5562 8.82 70.0042 8.82C70.3082 8.82 70.5722 8.74 70.7962 8.58C71.0282 8.42 71.1722 8.184 71.2282 7.872H72.3562C72.3322 8.216 72.2202 8.54 72.0202 8.844C71.8282 9.148 71.5562 9.396 71.2042 9.588C70.8602 9.78 70.4402 9.876 69.9442 9.876Z" fill="white"/>
<path d="M74.5732 9.756C74.1812 9.756 73.8852 9.66 73.6852 9.468C73.4932 9.276 73.3972 8.964 73.3972 8.532V5.556H74.5372V8.796H75.6892V9.756H74.5732ZM72.6532 5.688V4.824C72.8292 4.824 72.9732 4.812 73.0852 4.788C73.1972 4.764 73.2852 4.712 73.3492 4.632C73.4212 4.552 73.4732 4.428 73.5052 4.26C73.5372 4.092 73.5532 3.86 73.5532 3.564H74.5372V4.824H75.6652V5.688H72.6532Z" fill="white"/>
<g clip-path="url(#clip0_352_2606)" filter="url(#filter0_i_352_2606)">
<path d="M0 12C0 12.6667 0.4 14 2 14H12C12.6667 14 14 13.6 14 12V2C14 1.33333 13.6 0 12 0H2C1.33333 0 0 0.4 0 2V12Z" fill="#0D6FB4" stroke="#4A77A1" stroke-width="0.1"/>
<path d="M7 2L3 4V6L7 4L11 6V4L7 2Z" fill="url(#paint0_linear_352_2606)"/>
<path d="M7 5L3 7V9L7 7L9 8V6L7 5Z" fill="url(#paint1_linear_352_2606)"/>
<path d="M7 8L3 10V12L7 10L11 12V10L7 8Z" fill="url(#paint2_linear_352_2606)"/>
</g>
<defs>
<filter id="filter0_i_352_2606" x="0" y="-2" width="14" height="16" filterUnits="userSpaceOnUse" color-interpolation-filters="sRGB">
<feFlood flood-opacity="0" result="BackgroundImageFix"/>
<feBlend mode="normal" in="SourceGraphic" in2="BackgroundImageFix" result="shape"/>
<feColorMatrix in="SourceAlpha" type="matrix" values="0 0 0 0 0 0 0 0 0 0 0 0 0 0 0 0 0 0 127 0" result="hardAlpha"/>
<feOffset dy="-2"/>
<feGaussianBlur stdDeviation="2"/>
<feComposite in2="hardAlpha" operator="arithmetic" k2="-1" k3="1"/>
<feColorMatrix type="matrix" values="0 0 0 0 0.0644878 0 0 0 0 0.33677 0 0 0 0 0.745192 0 0 0 1 0"/>
<feBlend mode="normal" in2="shape" result="effect1_innerShadow_352_2606"/>
</filter>
<linearGradient id="paint0_linear_352_2606" x1="7" y1="2" x2="7" y2="12" gradientUnits="userSpaceOnUse">
<stop stop-color="#F8FDFF"/>
<stop offset="1" stop-color="#E3F6FF"/>
</linearGradient>
<linearGradient id="paint1_linear_352_2606" x1="7" y1="2" x2="7" y2="12" gradientUnits="userSpaceOnUse">
<stop stop-color="#F8FDFF"/>
<stop offset="1" stop-color="#E3F6FF"/>
</linearGradient>
<linearGradient id="paint2_linear_352_2606" x1="7" y1="2" x2="7" y2="12" gradientUnits="userSpaceOnUse">
<stop stop-color="#F8FDFF"/>
<stop offset="1" stop-color="#E3F6FF"/>
</linearGradient>
<clipPath id="clip0_352_2606">
<rect width="14" height="14" fill="white"/>
</clipPath>
</defs>
</svg>
